<?xml version="1.0" encoding="utf-8" standalone="no"?>
<!DOCTYPE svg PUBLIC "-//W3C//DTD SVG 1.1//EN"
  "http://www.w3.org/Graphics/SVG/1.1/DTD/svg11.dtd">
<svg xmlns:xlink="http://www.w3.org/1999/xlink" width="624.814062pt" height="312.967812pt" viewBox="0 0 624.814062 312.967812" xmlns="http://www.w3.org/2000/svg" version="1.1">
 <metadata>
  <rdf:RDF xmlns:dc="http://purl.org/dc/elements/1.1/" xmlns:cc="http://creativecommons.org/ns#" xmlns:rdf="http://www.w3.org/1999/02/22-rdf-syntax-ns#">
   <cc:Work>
    <dc:type rdf:resource="http://purl.org/dc/dcmitype/StillImage"/>
    <dc:date>2025-03-06T13:06:31.924281</dc:date>
    <dc:format>image/svg+xml</dc:format>
    <dc:creator>
     <cc:Agent>
      <dc:title>Matplotlib v3.9.2, https://matplotlib.org/</dc:title>
     </cc:Agent>
    </dc:creator>
   </cc:Work>
  </rdf:RDF>
 </metadata>
 <defs>
  <style type="text/css">*{stroke-linejoin: round; stroke-linecap: butt}</style>
 </defs>
 <g id="figure_1">
  <g id="patch_1">
   <path d="M 0 312.967812 
L 624.814062 312.967812 
L 624.814062 0 
L 0 0 
z
" style="fill: #ffffff"/>
  </g>
  <g id="axes_1">
   <g id="patch_2">
    <path d="M 46.965625 273.317812 
L 493.365625 273.317812 
L 493.365625 23.837812 
L 46.965625 23.837812 
z
" style="fill: #ffffff"/>
   </g>
   <g id="matplotlib.axis_1">
    <g id="xtick_1">
     <g id="line2d_1">
      <defs>
       <path id="me3507113cd" d="M 0 0 
L 0 3.5 
" style="stroke: #000000; stroke-width: 0.8"/>
      </defs>
      <g>
       <use xlink:href="#me3507113cd" x="62.908482" y="273.317812" style="stroke: #000000; stroke-width: 0.8"/>
      </g>
     </g>
     <g id="text_1">
      <!-- 2010 -->
      <g transform="translate(65.667857 305.767812) rotate(-90) scale(0.1 -0.1)">
       <defs>
        <path id="DejaVuSans-32" d="M 1228 531 
L 3431 531 
L 3431 0 
L 469 0 
L 469 531 
Q 828 903 1448 1529 
Q 2069 2156 2228 2338 
Q 2531 2678 2651 2914 
Q 2772 3150 2772 3378 
Q 2772 3750 2511 3984 
Q 2250 4219 1831 4219 
Q 1534 4219 1204 4116 
Q 875 4013 500 3803 
L 500 4441 
Q 881 4594 1212 4672 
Q 1544 4750 1819 4750 
Q 2544 4750 2975 4387 
Q 3406 4025 3406 3419 
Q 3406 3131 3298 2873 
Q 3191 2616 2906 2266 
Q 2828 2175 2409 1742 
Q 1991 1309 1228 531 
z
" transform="scale(0.015625)"/>
        <path id="DejaVuSans-30" d="M 2034 4250 
Q 1547 4250 1301 3770 
Q 1056 3291 1056 2328 
Q 1056 1369 1301 889 
Q 1547 409 2034 409 
Q 2525 409 2770 889 
Q 3016 1369 3016 2328 
Q 3016 3291 2770 3770 
Q 2525 4250 2034 4250 
z
M 2034 4750 
Q 2819 4750 3233 4129 
Q 3647 3509 3647 2328 
Q 3647 1150 3233 529 
Q 2819 -91 2034 -91 
Q 1250 -91 836 529 
Q 422 1150 422 2328 
Q 422 3509 836 4129 
Q 1250 4750 2034 4750 
z
" transform="scale(0.015625)"/>
        <path id="DejaVuSans-31" d="M 794 531 
L 1825 531 
L 1825 4091 
L 703 3866 
L 703 4441 
L 1819 4666 
L 2450 4666 
L 2450 531 
L 3481 531 
L 3481 0 
L 794 0 
L 794 531 
z
" transform="scale(0.015625)"/>
       </defs>
       <use xlink:href="#DejaVuSans-32"/>
       <use xlink:href="#DejaVuSans-30" x="63.623047"/>
       <use xlink:href="#DejaVuSans-31" x="127.246094"/>
       <use xlink:href="#DejaVuSans-30" x="190.869141"/>
      </g>
     </g>
    </g>
    <g id="xtick_2">
     <g id="line2d_2">
      <g>
       <use xlink:href="#me3507113cd" x="94.794196" y="273.317812" style="stroke: #000000; stroke-width: 0.8"/>
      </g>
     </g>
     <g id="text_2">
      <!-- 2011 -->
      <g transform="translate(97.553571 305.767812) rotate(-90) scale(0.1 -0.1)">
       <use xlink:href="#DejaVuSans-32"/>
       <use xlink:href="#DejaVuSans-30" x="63.623047"/>
       <use xlink:href="#DejaVuSans-31" x="127.246094"/>
       <use xlink:href="#DejaVuSans-31" x="190.869141"/>
      </g>
     </g>
    </g>
    <g id="xtick_3">
     <g id="line2d_3">
      <g>
       <use xlink:href="#me3507113cd" x="126.679911" y="273.317812" style="stroke: #000000; stroke-width: 0.8"/>
      </g>
     </g>
     <g id="text_3">
      <!-- 2012 -->
      <g transform="translate(129.439286 305.767812) rotate(-90) scale(0.1 -0.1)">
       <use xlink:href="#DejaVuSans-32"/>
       <use xlink:href="#DejaVuSans-30" x="63.623047"/>
       <use xlink:href="#DejaVuSans-31" x="127.246094"/>
       <use xlink:href="#DejaVuSans-32" x="190.869141"/>
      </g>
     </g>
    </g>
    <g id="xtick_4">
     <g id="line2d_4">
      <g>
       <use xlink:href="#me3507113cd" x="158.565625" y="273.317812" style="stroke: #000000; stroke-width: 0.8"/>
      </g>
     </g>
     <g id="text_4">
      <!-- 2013 -->
      <g transform="translate(161.325 305.767812) rotate(-90) scale(0.1 -0.1)">
       <defs>
        <path id="DejaVuSans-33" d="M 2597 2516 
Q 3050 2419 3304 2112 
Q 3559 1806 3559 1356 
Q 3559 666 3084 287 
Q 2609 -91 1734 -91 
Q 1441 -91 1130 -33 
Q 819 25 488 141 
L 488 750 
Q 750 597 1062 519 
Q 1375 441 1716 441 
Q 2309 441 2620 675 
Q 2931 909 2931 1356 
Q 2931 1769 2642 2001 
Q 2353 2234 1838 2234 
L 1294 2234 
L 1294 2753 
L 1863 2753 
Q 2328 2753 2575 2939 
Q 2822 3125 2822 3475 
Q 2822 3834 2567 4026 
Q 2313 4219 1838 4219 
Q 1578 4219 1281 4162 
Q 984 4106 628 3988 
L 628 4550 
Q 988 4650 1302 4700 
Q 1616 4750 1894 4750 
Q 2613 4750 3031 4423 
Q 3450 4097 3450 3541 
Q 3450 3153 3228 2886 
Q 3006 2619 2597 2516 
z
" transform="scale(0.015625)"/>
       </defs>
       <use xlink:href="#DejaVuSans-32"/>
       <use xlink:href="#DejaVuSans-30" x="63.623047"/>
       <use xlink:href="#DejaVuSans-31" x="127.246094"/>
       <use xlink:href="#DejaVuSans-33" x="190.869141"/>
      </g>
     </g>
    </g>
    <g id="xtick_5">
     <g id="line2d_5">
      <g>
       <use xlink:href="#me3507113cd" x="190.451339" y="273.317812" style="stroke: #000000; stroke-width: 0.8"/>
      </g>
     </g>
     <g id="text_5">
      <!-- 2014 -->
      <g transform="translate(193.210714 305.767812) rotate(-90) scale(0.1 -0.1)">
       <defs>
        <path id="DejaVuSans-34" d="M 2419 4116 
L 825 1625 
L 2419 1625 
L 2419 4116 
z
M 2253 4666 
L 3047 4666 
L 3047 1625 
L 3713 1625 
L 3713 1100 
L 3047 1100 
L 3047 0 
L 2419 0 
L 2419 1100 
L 313 1100 
L 313 1709 
L 2253 4666 
z
" transform="scale(0.015625)"/>
       </defs>
       <use xlink:href="#DejaVuSans-32"/>
       <use xlink:href="#DejaVuSans-30" x="63.623047"/>
       <use xlink:href="#DejaVuSans-31" x="127.246094"/>
       <use xlink:href="#DejaVuSans-34" x="190.869141"/>
      </g>
     </g>
    </g>
    <g id="xtick_6">
     <g id="line2d_6">
      <g>
       <use xlink:href="#me3507113cd" x="222.337054" y="273.317812" style="stroke: #000000; stroke-width: 0.8"/>
      </g>
     </g>
     <g id="text_6">
      <!-- 2015 -->
      <g transform="translate(225.096429 305.767812) rotate(-90) scale(0.1 -0.1)">
       <defs>
        <path id="DejaVuSans-35" d="M 691 4666 
L 3169 4666 
L 3169 4134 
L 1269 4134 
L 1269 2991 
Q 1406 3038 1543 3061 
Q 1681 3084 1819 3084 
Q 2600 3084 3056 2656 
Q 3513 2228 3513 1497 
Q 3513 744 3044 326 
Q 2575 -91 1722 -91 
Q 1428 -91 1123 -41 
Q 819 9 494 109 
L 494 744 
Q 775 591 1075 516 
Q 1375 441 1709 441 
Q 2250 441 2565 725 
Q 2881 1009 2881 1497 
Q 2881 1984 2565 2268 
Q 2250 2553 1709 2553 
Q 1456 2553 1204 2497 
Q 953 2441 691 2322 
L 691 4666 
z
" transform="scale(0.015625)"/>
       </defs>
       <use xlink:href="#DejaVuSans-32"/>
       <use xlink:href="#DejaVuSans-30" x="63.623047"/>
       <use xlink:href="#DejaVuSans-31" x="127.246094"/>
       <use xlink:href="#DejaVuSans-35" x="190.869141"/>
      </g>
     </g>
    </g>
    <g id="xtick_7">
     <g id="line2d_7">
      <g>
       <use xlink:href="#me3507113cd" x="254.222768" y="273.317812" style="stroke: #000000; stroke-width: 0.8"/>
      </g>
     </g>
     <g id="text_7">
      <!-- 2016 -->
      <g transform="translate(256.982143 305.767812) rotate(-90) scale(0.1 -0.1)">
       <defs>
        <path id="DejaVuSans-36" d="M 2113 2584 
Q 1688 2584 1439 2293 
Q 1191 2003 1191 1497 
Q 1191 994 1439 701 
Q 1688 409 2113 409 
Q 2538 409 2786 701 
Q 3034 994 3034 1497 
Q 3034 2003 2786 2293 
Q 2538 2584 2113 2584 
z
M 3366 4563 
L 3366 3988 
Q 3128 4100 2886 4159 
Q 2644 4219 2406 4219 
Q 1781 4219 1451 3797 
Q 1122 3375 1075 2522 
Q 1259 2794 1537 2939 
Q 1816 3084 2150 3084 
Q 2853 3084 3261 2657 
Q 3669 2231 3669 1497 
Q 3669 778 3244 343 
Q 2819 -91 2113 -91 
Q 1303 -91 875 529 
Q 447 1150 447 2328 
Q 447 3434 972 4092 
Q 1497 4750 2381 4750 
Q 2619 4750 2861 4703 
Q 3103 4656 3366 4563 
z
" transform="scale(0.015625)"/>
       </defs>
       <use xlink:href="#DejaVuSans-32"/>
       <use xlink:href="#DejaVuSans-30" x="63.623047"/>
       <use xlink:href="#DejaVuSans-31" x="127.246094"/>
       <use xlink:href="#DejaVuSans-36" x="190.869141"/>
      </g>
     </g>
    </g>
    <g id="xtick_8">
     <g id="line2d_8">
      <g>
       <use xlink:href="#me3507113cd" x="286.108482" y="273.317812" style="stroke: #000000; stroke-width: 0.8"/>
      </g>
     </g>
     <g id="text_8">
      <!-- 2017 -->
      <g transform="translate(288.867857 305.767812) rotate(-90) scale(0.1 -0.1)">
       <defs>
        <path id="DejaVuSans-37" d="M 525 4666 
L 3525 4666 
L 3525 4397 
L 1831 0 
L 1172 0 
L 2766 4134 
L 525 4134 
L 525 4666 
z
" transform="scale(0.015625)"/>
       </defs>
       <use xlink:href="#DejaVuSans-32"/>
       <use xlink:href="#DejaVuSans-30" x="63.623047"/>
       <use xlink:href="#DejaVuSans-31" x="127.246094"/>
       <use xlink:href="#DejaVuSans-37" x="190.869141"/>
      </g>
     </g>
    </g>
    <g id="xtick_9">
     <g id="line2d_9">
      <g>
       <use xlink:href="#me3507113cd" x="317.994196" y="273.317812" style="stroke: #000000; stroke-width: 0.8"/>
      </g>
     </g>
     <g id="text_9">
      <!-- 2018 -->
      <g transform="translate(320.753571 305.767812) rotate(-90) scale(0.1 -0.1)">
       <defs>
        <path id="DejaVuSans-38" d="M 2034 2216 
Q 1584 2216 1326 1975 
Q 1069 1734 1069 1313 
Q 1069 891 1326 650 
Q 1584 409 2034 409 
Q 2484 409 2743 651 
Q 3003 894 3003 1313 
Q 3003 1734 2745 1975 
Q 2488 2216 2034 2216 
z
M 1403 2484 
Q 997 2584 770 2862 
Q 544 3141 544 3541 
Q 544 4100 942 4425 
Q 1341 4750 2034 4750 
Q 2731 4750 3128 4425 
Q 3525 4100 3525 3541 
Q 3525 3141 3298 2862 
Q 3072 2584 2669 2484 
Q 3125 2378 3379 2068 
Q 3634 1759 3634 1313 
Q 3634 634 3220 271 
Q 2806 -91 2034 -91 
Q 1263 -91 848 271 
Q 434 634 434 1313 
Q 434 1759 690 2068 
Q 947 2378 1403 2484 
z
M 1172 3481 
Q 1172 3119 1398 2916 
Q 1625 2713 2034 2713 
Q 2441 2713 2670 2916 
Q 2900 3119 2900 3481 
Q 2900 3844 2670 4047 
Q 2441 4250 2034 4250 
Q 1625 4250 1398 4047 
Q 1172 3844 1172 3481 
z
" transform="scale(0.015625)"/>
       </defs>
       <use xlink:href="#DejaVuSans-32"/>
       <use xlink:href="#DejaVuSans-30" x="63.623047"/>
       <use xlink:href="#DejaVuSans-31" x="127.246094"/>
       <use xlink:href="#DejaVuSans-38" x="190.869141"/>
      </g>
     </g>
    </g>
    <g id="xtick_10">
     <g id="line2d_10">
      <g>
       <use xlink:href="#me3507113cd" x="349.879911" y="273.317812" style="stroke: #000000; stroke-width: 0.8"/>
      </g>
     </g>
     <g id="text_10">
      <!-- 2019 -->
      <g transform="translate(352.639286 305.767812) rotate(-90) scale(0.1 -0.1)">
       <defs>
        <path id="DejaVuSans-39" d="M 703 97 
L 703 672 
Q 941 559 1184 500 
Q 1428 441 1663 441 
Q 2288 441 2617 861 
Q 2947 1281 2994 2138 
Q 2813 1869 2534 1725 
Q 2256 1581 1919 1581 
Q 1219 1581 811 2004 
Q 403 2428 403 3163 
Q 403 3881 828 4315 
Q 1253 4750 1959 4750 
Q 2769 4750 3195 4129 
Q 3622 3509 3622 2328 
Q 3622 1225 3098 567 
Q 2575 -91 1691 -91 
Q 1453 -91 1209 -44 
Q 966 3 703 97 
z
M 1959 2075 
Q 2384 2075 2632 2365 
Q 2881 2656 2881 3163 
Q 2881 3666 2632 3958 
Q 2384 4250 1959 4250 
Q 1534 4250 1286 3958 
Q 1038 3666 1038 3163 
Q 1038 2656 1286 2365 
Q 1534 2075 1959 2075 
z
" transform="scale(0.015625)"/>
       </defs>
       <use xlink:href="#DejaVuSans-32"/>
       <use xlink:href="#DejaVuSans-30" x="63.623047"/>
       <use xlink:href="#DejaVuSans-31" x="127.246094"/>
       <use xlink:href="#DejaVuSans-39" x="190.869141"/>
      </g>
     </g>
    </g>
    <g id="xtick_11">
     <g id="line2d_11">
      <g>
       <use xlink:href="#me3507113cd" x="381.765625" y="273.317812" style="stroke: #000000; stroke-width: 0.8"/>
      </g>
     </g>
     <g id="text_11">
      <!-- 2020 -->
      <g transform="translate(384.525 305.767812) rotate(-90) scale(0.1 -0.1)">
       <use xlink:href="#DejaVuSans-32"/>
       <use xlink:href="#DejaVuSans-30" x="63.623047"/>
       <use xlink:href="#DejaVuSans-32" x="127.246094"/>
       <use xlink:href="#DejaVuSans-30" x="190.869141"/>
      </g>
     </g>
    </g>
    <g id="xtick_12">
     <g id="line2d_12">
      <g>
       <use xlink:href="#me3507113cd" x="413.651339" y="273.317812" style="stroke: #000000; stroke-width: 0.8"/>
      </g>
     </g>
     <g id="text_12">
      <!-- 2021 -->
      <g transform="translate(416.410714 305.767812) rotate(-90) scale(0.1 -0.1)">
       <use xlink:href="#DejaVuSans-32"/>
       <use xlink:href="#DejaVuSans-30" x="63.623047"/>
       <use xlink:href="#DejaVuSans-32" x="127.246094"/>
       <use xlink:href="#DejaVuSans-31" x="190.869141"/>
      </g>
     </g>
    </g>
    <g id="xtick_13">
     <g id="line2d_13">
      <g>
       <use xlink:href="#me3507113cd" x="445.537054" y="273.317812" style="stroke: #000000; stroke-width: 0.8"/>
      </g>
     </g>
     <g id="text_13">
      <!-- 2022 -->
      <g transform="translate(448.296429 305.767812) rotate(-90) scale(0.1 -0.1)">
       <use xlink:href="#DejaVuSans-32"/>
       <use xlink:href="#DejaVuSans-30" x="63.623047"/>
       <use xlink:href="#DejaVuSans-32" x="127.246094"/>
       <use xlink:href="#DejaVuSans-32" x="190.869141"/>
      </g>
     </g>
    </g>
    <g id="xtick_14">
     <g id="line2d_14">
      <g>
       <use xlink:href="#me3507113cd" x="477.422768" y="273.317812" style="stroke: #000000; stroke-width: 0.8"/>
      </g>
     </g>
     <g id="text_14">
      <!-- 2023 -->
      <g transform="translate(480.182143 305.767812) rotate(-90) scale(0.1 -0.1)">
       <use xlink:href="#DejaVuSans-32"/>
       <use xlink:href="#DejaVuSans-30" x="63.623047"/>
       <use xlink:href="#DejaVuSans-32" x="127.246094"/>
       <use xlink:href="#DejaVuSans-33" x="190.869141"/>
      </g>
     </g>
    </g>
   </g>
   <g id="matplotlib.axis_2">
    <g id="ytick_1">
     <g id="line2d_15">
      <defs>
       <path id="me9edcec51e" d="M 0 0 
L -3.5 0 
" style="stroke: #000000; stroke-width: 0.8"/>
      </defs>
      <g>
       <use xlink:href="#me9edcec51e" x="46.965625" y="273.317812" style="stroke: #000000; stroke-width: 0.8"/>
      </g>
     </g>
     <g id="text_15">
      <!-- 0 -->
      <g transform="translate(33.603125 277.117031) scale(0.1 -0.1)">
       <use xlink:href="#DejaVuSans-30"/>
      </g>
     </g>
    </g>
    <g id="ytick_2">
     <g id="line2d_16">
      <g>
       <use xlink:href="#me9edcec51e" x="46.965625" y="223.421812" style="stroke: #000000; stroke-width: 0.8"/>
      </g>
     </g>
     <g id="text_16">
      <!-- 20 -->
      <g transform="translate(27.240625 227.221031) scale(0.1 -0.1)">
       <use xlink:href="#DejaVuSans-32"/>
       <use xlink:href="#DejaVuSans-30" x="63.623047"/>
      </g>
     </g>
    </g>
    <g id="ytick_3">
     <g id="line2d_17">
      <g>
       <use xlink:href="#me9edcec51e" x="46.965625" y="173.525812" style="stroke: #000000; stroke-width: 0.8"/>
      </g>
     </g>
     <g id="text_17">
      <!-- 40 -->
      <g transform="translate(27.240625 177.325031) scale(0.1 -0.1)">
       <use xlink:href="#DejaVuSans-34"/>
       <use xlink:href="#DejaVuSans-30" x="63.623047"/>
      </g>
     </g>
    </g>
    <g id="ytick_4">
     <g id="line2d_18">
      <g>
       <use xlink:href="#me9edcec51e" x="46.965625" y="123.629812" style="stroke: #000000; stroke-width: 0.8"/>
      </g>
     </g>
     <g id="text_18">
      <!-- 60 -->
      <g transform="translate(27.240625 127.429031) scale(0.1 -0.1)">
       <use xlink:href="#DejaVuSans-36"/>
       <use xlink:href="#DejaVuSans-30" x="63.623047"/>
      </g>
     </g>
    </g>
    <g id="ytick_5">
     <g id="line2d_19">
      <g>
       <use xlink:href="#me9edcec51e" x="46.965625" y="73.733812" style="stroke: #000000; stroke-width: 0.8"/>
      </g>
     </g>
     <g id="text_19">
      <!-- 80 -->
      <g transform="translate(27.240625 77.533031) scale(0.1 -0.1)">
       <use xlink:href="#DejaVuSans-38"/>
       <use xlink:href="#DejaVuSans-30" x="63.623047"/>
      </g>
     </g>
    </g>
    <g id="ytick_6">
     <g id="line2d_20">
      <g>
       <use xlink:href="#me9edcec51e" x="46.965625" y="23.837812" style="stroke: #000000; stroke-width: 0.8"/>
      </g>
     </g>
     <g id="text_20">
      <!-- 100 -->
      <g transform="translate(20.878125 27.637031) scale(0.1 -0.1)">
       <use xlink:href="#DejaVuSans-31"/>
       <use xlink:href="#DejaVuSans-30" x="63.623047"/>
       <use xlink:href="#DejaVuSans-30" x="127.246094"/>
      </g>
     </g>
    </g>
    <g id="text_21">
     <!-- Share of population (percent) -->
     <g transform="translate(14.798438 222.248125) rotate(-90) scale(0.1 -0.1)">
      <defs>
       <path id="DejaVuSans-53" d="M 3425 4513 
L 3425 3897 
Q 3066 4069 2747 4153 
Q 2428 4238 2131 4238 
Q 1616 4238 1336 4038 
Q 1056 3838 1056 3469 
Q 1056 3159 1242 3001 
Q 1428 2844 1947 2747 
L 2328 2669 
Q 3034 2534 3370 2195 
Q 3706 1856 3706 1288 
Q 3706 609 3251 259 
Q 2797 -91 1919 -91 
Q 1588 -91 1214 -16 
Q 841 59 441 206 
L 441 856 
Q 825 641 1194 531 
Q 1563 422 1919 422 
Q 2459 422 2753 634 
Q 3047 847 3047 1241 
Q 3047 1584 2836 1778 
Q 2625 1972 2144 2069 
L 1759 2144 
Q 1053 2284 737 2584 
Q 422 2884 422 3419 
Q 422 4038 858 4394 
Q 1294 4750 2059 4750 
Q 2388 4750 2728 4690 
Q 3069 4631 3425 4513 
z
" transform="scale(0.015625)"/>
       <path id="DejaVuSans-68" d="M 3513 2113 
L 3513 0 
L 2938 0 
L 2938 2094 
Q 2938 2591 2744 2837 
Q 2550 3084 2163 3084 
Q 1697 3084 1428 2787 
Q 1159 2491 1159 1978 
L 1159 0 
L 581 0 
L 581 4863 
L 1159 4863 
L 1159 2956 
Q 1366 3272 1645 3428 
Q 1925 3584 2291 3584 
Q 2894 3584 3203 3211 
Q 3513 2838 3513 2113 
z
" transform="scale(0.015625)"/>
       <path id="DejaVuSans-61" d="M 2194 1759 
Q 1497 1759 1228 1600 
Q 959 1441 959 1056 
Q 959 750 1161 570 
Q 1363 391 1709 391 
Q 2188 391 2477 730 
Q 2766 1069 2766 1631 
L 2766 1759 
L 2194 1759 
z
M 3341 1997 
L 3341 0 
L 2766 0 
L 2766 531 
Q 2569 213 2275 61 
Q 1981 -91 1556 -91 
Q 1019 -91 701 211 
Q 384 513 384 1019 
Q 384 1609 779 1909 
Q 1175 2209 1959 2209 
L 2766 2209 
L 2766 2266 
Q 2766 2663 2505 2880 
Q 2244 3097 1772 3097 
Q 1472 3097 1187 3025 
Q 903 2953 641 2809 
L 641 3341 
Q 956 3463 1253 3523 
Q 1550 3584 1831 3584 
Q 2591 3584 2966 3190 
Q 3341 2797 3341 1997 
z
" transform="scale(0.015625)"/>
       <path id="DejaVuSans-72" d="M 2631 2963 
Q 2534 3019 2420 3045 
Q 2306 3072 2169 3072 
Q 1681 3072 1420 2755 
Q 1159 2438 1159 1844 
L 1159 0 
L 581 0 
L 581 3500 
L 1159 3500 
L 1159 2956 
Q 1341 3275 1631 3429 
Q 1922 3584 2338 3584 
Q 2397 3584 2469 3576 
Q 2541 3569 2628 3553 
L 2631 2963 
z
" transform="scale(0.015625)"/>
       <path id="DejaVuSans-65" d="M 3597 1894 
L 3597 1613 
L 953 1613 
Q 991 1019 1311 708 
Q 1631 397 2203 397 
Q 2534 397 2845 478 
Q 3156 559 3463 722 
L 3463 178 
Q 3153 47 2828 -22 
Q 2503 -91 2169 -91 
Q 1331 -91 842 396 
Q 353 884 353 1716 
Q 353 2575 817 3079 
Q 1281 3584 2069 3584 
Q 2775 3584 3186 3129 
Q 3597 2675 3597 1894 
z
M 3022 2063 
Q 3016 2534 2758 2815 
Q 2500 3097 2075 3097 
Q 1594 3097 1305 2825 
Q 1016 2553 972 2059 
L 3022 2063 
z
" transform="scale(0.015625)"/>
       <path id="DejaVuSans-20" transform="scale(0.015625)"/>
       <path id="DejaVuSans-6f" d="M 1959 3097 
Q 1497 3097 1228 2736 
Q 959 2375 959 1747 
Q 959 1119 1226 758 
Q 1494 397 1959 397 
Q 2419 397 2687 759 
Q 2956 1122 2956 1747 
Q 2956 2369 2687 2733 
Q 2419 3097 1959 3097 
z
M 1959 3584 
Q 2709 3584 3137 3096 
Q 3566 2609 3566 1747 
Q 3566 888 3137 398 
Q 2709 -91 1959 -91 
Q 1206 -91 779 398 
Q 353 888 353 1747 
Q 353 2609 779 3096 
Q 1206 3584 1959 3584 
z
" transform="scale(0.015625)"/>
       <path id="DejaVuSans-66" d="M 2375 4863 
L 2375 4384 
L 1825 4384 
Q 1516 4384 1395 4259 
Q 1275 4134 1275 3809 
L 1275 3500 
L 2222 3500 
L 2222 3053 
L 1275 3053 
L 1275 0 
L 697 0 
L 697 3053 
L 147 3053 
L 147 3500 
L 697 3500 
L 697 3744 
Q 697 4328 969 4595 
Q 1241 4863 1831 4863 
L 2375 4863 
z
" transform="scale(0.015625)"/>
       <path id="DejaVuSans-70" d="M 1159 525 
L 1159 -1331 
L 581 -1331 
L 581 3500 
L 1159 3500 
L 1159 2969 
Q 1341 3281 1617 3432 
Q 1894 3584 2278 3584 
Q 2916 3584 3314 3078 
Q 3713 2572 3713 1747 
Q 3713 922 3314 415 
Q 2916 -91 2278 -91 
Q 1894 -91 1617 61 
Q 1341 213 1159 525 
z
M 3116 1747 
Q 3116 2381 2855 2742 
Q 2594 3103 2138 3103 
Q 1681 3103 1420 2742 
Q 1159 2381 1159 1747 
Q 1159 1113 1420 752 
Q 1681 391 2138 391 
Q 2594 391 2855 752 
Q 3116 1113 3116 1747 
z
" transform="scale(0.015625)"/>
       <path id="DejaVuSans-75" d="M 544 1381 
L 544 3500 
L 1119 3500 
L 1119 1403 
Q 1119 906 1312 657 
Q 1506 409 1894 409 
Q 2359 409 2629 706 
Q 2900 1003 2900 1516 
L 2900 3500 
L 3475 3500 
L 3475 0 
L 2900 0 
L 2900 538 
Q 2691 219 2414 64 
Q 2138 -91 1772 -91 
Q 1169 -91 856 284 
Q 544 659 544 1381 
z
M 1991 3584 
L 1991 3584 
z
" transform="scale(0.015625)"/>
       <path id="DejaVuSans-6c" d="M 603 4863 
L 1178 4863 
L 1178 0 
L 603 0 
L 603 4863 
z
" transform="scale(0.015625)"/>
       <path id="DejaVuSans-74" d="M 1172 4494 
L 1172 3500 
L 2356 3500 
L 2356 3053 
L 1172 3053 
L 1172 1153 
Q 1172 725 1289 603 
Q 1406 481 1766 481 
L 2356 481 
L 2356 0 
L 1766 0 
Q 1100 0 847 248 
Q 594 497 594 1153 
L 594 3053 
L 172 3053 
L 172 3500 
L 594 3500 
L 594 4494 
L 1172 4494 
z
" transform="scale(0.015625)"/>
       <path id="DejaVuSans-69" d="M 603 3500 
L 1178 3500 
L 1178 0 
L 603 0 
L 603 3500 
z
M 603 4863 
L 1178 4863 
L 1178 4134 
L 603 4134 
L 603 4863 
z
" transform="scale(0.015625)"/>
       <path id="DejaVuSans-6e" d="M 3513 2113 
L 3513 0 
L 2938 0 
L 2938 2094 
Q 2938 2591 2744 2837 
Q 2550 3084 2163 3084 
Q 1697 3084 1428 2787 
Q 1159 2491 1159 1978 
L 1159 0 
L 581 0 
L 581 3500 
L 1159 3500 
L 1159 2956 
Q 1366 3272 1645 3428 
Q 1925 3584 2291 3584 
Q 2894 3584 3203 3211 
Q 3513 2838 3513 2113 
z
" transform="scale(0.015625)"/>
       <path id="DejaVuSans-28" d="M 1984 4856 
Q 1566 4138 1362 3434 
Q 1159 2731 1159 2009 
Q 1159 1288 1364 580 
Q 1569 -128 1984 -844 
L 1484 -844 
Q 1016 -109 783 600 
Q 550 1309 550 2009 
Q 550 2706 781 3412 
Q 1013 4119 1484 4856 
L 1984 4856 
z
" transform="scale(0.015625)"/>
       <path id="DejaVuSans-63" d="M 3122 3366 
L 3122 2828 
Q 2878 2963 2633 3030 
Q 2388 3097 2138 3097 
Q 1578 3097 1268 2742 
Q 959 2388 959 1747 
Q 959 1106 1268 751 
Q 1578 397 2138 397 
Q 2388 397 2633 464 
Q 2878 531 3122 666 
L 3122 134 
Q 2881 22 2623 -34 
Q 2366 -91 2075 -91 
Q 1284 -91 818 406 
Q 353 903 353 1747 
Q 353 2603 823 3093 
Q 1294 3584 2113 3584 
Q 2378 3584 2631 3529 
Q 2884 3475 3122 3366 
z
" transform="scale(0.015625)"/>
       <path id="DejaVuSans-29" d="M 513 4856 
L 1013 4856 
Q 1481 4119 1714 3412 
Q 1947 2706 1947 2009 
Q 1947 1309 1714 600 
Q 1481 -109 1013 -844 
L 513 -844 
Q 928 -128 1133 580 
Q 1338 1288 1338 2009 
Q 1338 2731 1133 3434 
Q 928 4138 513 4856 
z
" transform="scale(0.015625)"/>
      </defs>
      <use xlink:href="#DejaVuSans-53"/>
      <use xlink:href="#DejaVuSans-68" x="63.476562"/>
      <use xlink:href="#DejaVuSans-61" x="126.855469"/>
      <use xlink:href="#DejaVuSans-72" x="188.134766"/>
      <use xlink:href="#DejaVuSans-65" x="226.998047"/>
      <use xlink:href="#DejaVuSans-20" x="288.521484"/>
      <use xlink:href="#DejaVuSans-6f" x="320.308594"/>
      <use xlink:href="#DejaVuSans-66" x="381.490234"/>
      <use xlink:href="#DejaVuSans-20" x="416.695312"/>
      <use xlink:href="#DejaVuSans-70" x="448.482422"/>
      <use xlink:href="#DejaVuSans-6f" x="511.958984"/>
      <use xlink:href="#DejaVuSans-70" x="573.140625"/>
      <use xlink:href="#DejaVuSans-75" x="636.617188"/>
      <use xlink:href="#DejaVuSans-6c" x="699.996094"/>
      <use xlink:href="#DejaVuSans-61" x="727.779297"/>
      <use xlink:href="#DejaVuSans-74" x="789.058594"/>
      <use xlink:href="#DejaVuSans-69" x="828.267578"/>
      <use xlink:href="#DejaVuSans-6f" x="856.050781"/>
      <use xlink:href="#DejaVuSans-6e" x="917.232422"/>
      <use xlink:href="#DejaVuSans-20" x="980.611328"/>
      <use xlink:href="#DejaVuSans-28" x="1012.398438"/>
      <use xlink:href="#DejaVuSans-70" x="1051.412109"/>
      <use xlink:href="#DejaVuSans-65" x="1114.888672"/>
      <use xlink:href="#DejaVuSans-72" x="1176.412109"/>
      <use xlink:href="#DejaVuSans-63" x="1215.275391"/>
      <use xlink:href="#DejaVuSans-65" x="1270.255859"/>
      <use xlink:href="#DejaVuSans-6e" x="1331.779297"/>
      <use xlink:href="#DejaVuSans-74" x="1395.158203"/>
      <use xlink:href="#DejaVuSans-29" x="1434.367188"/>
     </g>
    </g>
   </g>
   <g id="patch_3">
    <path d="M 54.937054 273.317812 
L 70.879911 273.317812 
L 70.879911 272.886259 
L 54.937054 272.886259 
z
" clip-path="url(#p165aa1ad5c)" style="fill: #149ece"/>
   </g>
   <g id="patch_4">
    <path d="M 86.822768 273.317812 
L 102.765625 273.317812 
L 102.765625 272.852223 
L 86.822768 272.852223 
z
" clip-path="url(#p165aa1ad5c)" style="fill: #149ece"/>
   </g>
   <g id="patch_5">
    <path d="M 118.708482 273.317812 
L 134.651339 273.317812 
L 134.651339 272.807106 
L 118.708482 272.807106 
z
" clip-path="url(#p165aa1ad5c)" style="fill: #149ece"/>
   </g>
   <g id="patch_6">
    <path d="M 150.594196 273.317812 
L 166.537054 273.317812 
L 166.537054 272.778114 
L 150.594196 272.778114 
z
" clip-path="url(#p165aa1ad5c)" style="fill: #149ece"/>
   </g>
   <g id="patch_7">
    <path d="M 182.479911 273.317812 
L 198.422768 273.317812 
L 198.422768 272.745073 
L 182.479911 272.745073 
z
" clip-path="url(#p165aa1ad5c)" style="fill: #149ece"/>
   </g>
   <g id="patch_8">
    <path d="M 214.365625 273.317812 
L 230.308482 273.317812 
L 230.308482 272.687591 
L 214.365625 272.687591 
z
" clip-path="url(#p165aa1ad5c)" style="fill: #149ece"/>
   </g>
   <g id="patch_9">
    <path d="M 246.251339 273.317812 
L 262.194196 273.317812 
L 262.194196 272.518507 
L 246.251339 272.518507 
z
" clip-path="url(#p165aa1ad5c)" style="fill: #149ece"/>
   </g>
   <g id="patch_10">
    <path d="M 278.137054 273.317812 
L 294.079911 273.317812 
L 294.079911 272.423053 
L 278.137054 272.423053 
z
" clip-path="url(#p165aa1ad5c)" style="fill: #149ece"/>
   </g>
   <g id="patch_11">
    <path d="M 310.022768 273.317812 
L 325.965625 273.317812 
L 325.965625 272.39391 
L 310.022768 272.39391 
z
" clip-path="url(#p165aa1ad5c)" style="fill: #149ece"/>
   </g>
   <g id="patch_12">
    <path d="M 341.908482 273.317812 
L 357.851339 273.317812 
L 357.851339 272.319539 
L 341.908482 272.319539 
z
" clip-path="url(#p165aa1ad5c)" style="fill: #149ece"/>
   </g>
   <g id="patch_13">
    <path d="M 373.794196 273.317812 
L 389.737054 273.317812 
L 389.737054 272.161165 
L 373.794196 272.161165 
z
" clip-path="url(#p165aa1ad5c)" style="fill: #149ece"/>
   </g>
   <g id="patch_14">
    <path d="M 405.679911 273.317812 
L 421.622768 273.317812 
L 421.622768 272.14592 
L 405.679911 272.14592 
z
" clip-path="url(#p165aa1ad5c)" style="fill: #149ece"/>
   </g>
   <g id="patch_15">
    <path d="M 437.565625 273.317812 
L 453.508482 273.317812 
L 453.508482 272.196776 
L 437.565625 272.196776 
z
" clip-path="url(#p165aa1ad5c)" style="fill: #149ece"/>
   </g>
   <g id="patch_16">
    <path d="M 469.451339 273.317812 
L 485.394196 273.317812 
L 485.394196 272.167342 
L 469.451339 272.167342 
z
" clip-path="url(#p165aa1ad5c)" style="fill: #149ece"/>
   </g>
   <g id="patch_17">
    <path d="M 54.937054 272.886259 
L 70.879911 272.886259 
L 70.879911 270.923116 
L 54.937054 270.923116 
z
" clip-path="url(#p165aa1ad5c)" style="fill: #007ac2"/>
   </g>
   <g id="patch_18">
    <path d="M 86.822768 272.852223 
L 102.765625 272.852223 
L 102.765625 270.871349 
L 86.822768 270.871349 
z
" clip-path="url(#p165aa1ad5c)" style="fill: #007ac2"/>
   </g>
   <g id="patch_19">
    <path d="M 118.708482 272.807106 
L 134.651339 272.807106 
L 134.651339 270.747258 
L 118.708482 270.747258 
z
" clip-path="url(#p165aa1ad5c)" style="fill: #007ac2"/>
   </g>
   <g id="patch_20">
    <path d="M 150.594196 272.778114 
L 166.537054 272.778114 
L 166.537054 271.367934 
L 150.594196 271.367934 
z
" clip-path="url(#p165aa1ad5c)" style="fill: #007ac2"/>
   </g>
   <g id="patch_21">
    <path d="M 182.479911 272.745073 
L 198.422768 272.745073 
L 198.422768 271.278514 
L 182.479911 271.278514 
z
" clip-path="url(#p165aa1ad5c)" style="fill: #007ac2"/>
   </g>
   <g id="patch_22">
    <path d="M 214.365625 272.687591 
L 230.308482 272.687591 
L 230.308482 271.182063 
L 214.365625 271.182063 
z
" clip-path="url(#p165aa1ad5c)" style="fill: #007ac2"/>
   </g>
   <g id="patch_23">
    <path d="M 246.251339 272.518507 
L 262.194196 272.518507 
L 262.194196 270.95503 
L 246.251339 270.95503 
z
" clip-path="url(#p165aa1ad5c)" style="fill: #007ac2"/>
   </g>
   <g id="patch_24">
    <path d="M 278.137054 272.423053 
L 294.079911 272.423053 
L 294.079911 270.879154 
L 278.137054 270.879154 
z
" clip-path="url(#p165aa1ad5c)" style="fill: #007ac2"/>
   </g>
   <g id="patch_25">
    <path d="M 310.022768 272.39391 
L 325.965625 272.39391 
L 325.965625 270.810078 
L 310.022768 270.810078 
z
" clip-path="url(#p165aa1ad5c)" style="fill: #007ac2"/>
   </g>
   <g id="patch_26">
    <path d="M 341.908482 272.319539 
L 357.851339 272.319539 
L 357.851339 270.667529 
L 341.908482 270.667529 
z
" clip-path="url(#p165aa1ad5c)" style="fill: #007ac2"/>
   </g>
   <g id="patch_27">
    <path d="M 373.794196 272.161165 
L 389.737054 272.161165 
L 389.737054 270.497372 
L 373.794196 270.497372 
z
" clip-path="url(#p165aa1ad5c)" style="fill: #007ac2"/>
   </g>
   <g id="patch_28">
    <path d="M 405.679911 272.14592 
L 421.622768 272.14592 
L 421.622768 270.299301 
L 405.679911 270.299301 
z
" clip-path="url(#p165aa1ad5c)" style="fill: #007ac2"/>
   </g>
   <g id="patch_29">
    <path d="M 437.565625 272.196776 
L 453.508482 272.196776 
L 453.508482 270.340339 
L 437.565625 270.340339 
z
" clip-path="url(#p165aa1ad5c)" style="fill: #007ac2"/>
   </g>
   <g id="patch_30">
    <path d="M 469.451339 272.167342 
L 485.394196 272.167342 
L 485.394196 270.237812 
L 469.451339 270.237812 
z
" clip-path="url(#p165aa1ad5c)" style="fill: #007ac2"/>
   </g>
   <g id="patch_31">
    <path d="M 54.937054 270.923116 
L 70.879911 270.923116 
L 70.879911 269.230751 
L 54.937054 269.230751 
z
" clip-path="url(#p165aa1ad5c)" style="fill: #a7c636"/>
   </g>
   <g id="patch_32">
    <path d="M 86.822768 270.871349 
L 102.765625 270.871349 
L 102.765625 268.992059 
L 86.822768 268.992059 
z
" clip-path="url(#p165aa1ad5c)" style="fill: #a7c636"/>
   </g>
   <g id="patch_33">
    <path d="M 118.708482 270.747258 
L 134.651339 270.747258 
L 134.651339 268.798062 
L 118.708482 268.798062 
z
" clip-path="url(#p165aa1ad5c)" style="fill: #a7c636"/>
   </g>
   <g id="patch_34">
    <path d="M 150.594196 271.367934 
L 166.537054 271.367934 
L 166.537054 269.226549 
L 150.594196 269.226549 
z
" clip-path="url(#p165aa1ad5c)" style="fill: #a7c636"/>
   </g>
   <g id="patch_35">
    <path d="M 182.479911 271.278514 
L 198.422768 271.278514 
L 198.422768 269.126403 
L 182.479911 269.126403 
z
" clip-path="url(#p165aa1ad5c)" style="fill: #a7c636"/>
   </g>
   <g id="patch_36">
    <path d="M 214.365625 271.182063 
L 230.308482 271.182063 
L 230.308482 268.97629 
L 214.365625 268.97629 
z
" clip-path="url(#p165aa1ad5c)" style="fill: #a7c636"/>
   </g>
   <g id="patch_37">
    <path d="M 246.251339 270.95503 
L 262.194196 270.95503 
L 262.194196 268.715217 
L 246.251339 268.715217 
z
" clip-path="url(#p165aa1ad5c)" style="fill: #a7c636"/>
   </g>
   <g id="patch_38">
    <path d="M 278.137054 270.879154 
L 294.079911 270.879154 
L 294.079911 268.528218 
L 278.137054 268.528218 
z
" clip-path="url(#p165aa1ad5c)" style="fill: #a7c636"/>
   </g>
   <g id="patch_39">
    <path d="M 310.022768 270.810078 
L 325.965625 270.810078 
L 325.965625 268.258348 
L 310.022768 268.258348 
z
" clip-path="url(#p165aa1ad5c)" style="fill: #a7c636"/>
   </g>
   <g id="patch_40">
    <path d="M 341.908482 270.667529 
L 357.851339 270.667529 
L 357.851339 267.928903 
L 341.908482 267.928903 
z
" clip-path="url(#p165aa1ad5c)" style="fill: #a7c636"/>
   </g>
   <g id="patch_41">
    <path d="M 373.794196 270.497372 
L 389.737054 270.497372 
L 389.737054 268.33533 
L 373.794196 268.33533 
z
" clip-path="url(#p165aa1ad5c)" style="fill: #a7c636"/>
   </g>
   <g id="patch_42">
    <path d="M 405.679911 270.299301 
L 421.622768 270.299301 
L 421.622768 267.911125 
L 405.679911 267.911125 
z
" clip-path="url(#p165aa1ad5c)" style="fill: #a7c636"/>
   </g>
   <g id="patch_43">
    <path d="M 437.565625 270.340339 
L 453.508482 270.340339 
L 453.508482 267.883026 
L 437.565625 267.883026 
z
" clip-path="url(#p165aa1ad5c)" style="fill: #a7c636"/>
   </g>
   <g id="patch_44">
    <path d="M 469.451339 270.237812 
L 485.394196 270.237812 
L 485.394196 267.746636 
L 469.451339 267.746636 
z
" clip-path="url(#p165aa1ad5c)" style="fill: #a7c636"/>
   </g>
   <g id="patch_45">
    <path d="M 54.937054 269.230751 
L 70.879911 269.230751 
L 70.879911 268.469187 
L 54.937054 268.469187 
z
" clip-path="url(#p165aa1ad5c)" style="fill: #9e559c"/>
   </g>
   <g id="patch_46">
    <path d="M 86.822768 268.992059 
L 102.765625 268.992059 
L 102.765625 268.230185 
L 86.822768 268.230185 
z
" clip-path="url(#p165aa1ad5c)" style="fill: #9e559c"/>
   </g>
   <g id="patch_47">
    <path d="M 118.708482 268.798062 
L 134.651339 268.798062 
L 134.651339 268.040515 
L 118.708482 268.040515 
z
" clip-path="url(#p165aa1ad5c)" style="fill: #9e559c"/>
   </g>
   <g id="patch_48">
    <path d="M 150.594196 269.226549 
L 166.537054 269.226549 
L 166.537054 268.451821 
L 150.594196 268.451821 
z
" clip-path="url(#p165aa1ad5c)" style="fill: #9e559c"/>
   </g>
   <g id="patch_49">
    <path d="M 182.479911 269.126403 
L 198.422768 269.126403 
L 198.422768 268.345395 
L 182.479911 268.345395 
z
" clip-path="url(#p165aa1ad5c)" style="fill: #9e559c"/>
   </g>
   <g id="patch_50">
    <path d="M 214.365625 268.97629 
L 230.308482 268.97629 
L 230.308482 268.223526 
L 214.365625 268.223526 
z
" clip-path="url(#p165aa1ad5c)" style="fill: #9e559c"/>
   </g>
   <g id="patch_51">
    <path d="M 246.251339 268.715217 
L 262.194196 268.715217 
L 262.194196 267.951046 
L 246.251339 267.951046 
z
" clip-path="url(#p165aa1ad5c)" style="fill: #9e559c"/>
   </g>
   <g id="patch_52">
    <path d="M 278.137054 268.528218 
L 294.079911 268.528218 
L 294.079911 267.712407 
L 278.137054 267.712407 
z
" clip-path="url(#p165aa1ad5c)" style="fill: #9e559c"/>
   </g>
   <g id="patch_53">
    <path d="M 310.022768 268.258348 
L 325.965625 268.258348 
L 325.965625 267.38724 
L 310.022768 267.38724 
z
" clip-path="url(#p165aa1ad5c)" style="fill: #9e559c"/>
   </g>
   <g id="patch_54">
    <path d="M 341.908482 267.928903 
L 357.851339 267.928903 
L 357.851339 267.124984 
L 341.908482 267.124984 
z
" clip-path="url(#p165aa1ad5c)" style="fill: #9e559c"/>
   </g>
   <g id="patch_55">
    <path d="M 373.794196 268.33533 
L 389.737054 268.33533 
L 389.737054 267.481191 
L 373.794196 267.481191 
z
" clip-path="url(#p165aa1ad5c)" style="fill: #9e559c"/>
   </g>
   <g id="patch_56">
    <path d="M 405.679911 267.911125 
L 421.622768 267.911125 
L 421.622768 267.067717 
L 405.679911 267.067717 
z
" clip-path="url(#p165aa1ad5c)" style="fill: #9e559c"/>
   </g>
   <g id="patch_57">
    <path d="M 437.565625 267.883026 
L 453.508482 267.883026 
L 453.508482 266.941356 
L 437.565625 266.941356 
z
" clip-path="url(#p165aa1ad5c)" style="fill: #9e559c"/>
   </g>
   <g id="patch_58">
    <path d="M 469.451339 267.746636 
L 485.394196 267.746636 
L 485.394196 266.777342 
L 469.451339 266.777342 
z
" clip-path="url(#p165aa1ad5c)" style="fill: #9e559c"/>
   </g>
   <g id="patch_59">
    <path d="M 54.937054 268.469187 
L 70.879911 268.469187 
L 70.879911 265.956024 
L 54.937054 265.956024 
z
" clip-path="url(#p165aa1ad5c)" style="fill: #fc921f"/>
   </g>
   <g id="patch_60">
    <path d="M 86.822768 268.230185 
L 102.765625 268.230185 
L 102.765625 265.682138 
L 86.822768 265.682138 
z
" clip-path="url(#p165aa1ad5c)" style="fill: #fc921f"/>
   </g>
   <g id="patch_61">
    <path d="M 118.708482 268.040515 
L 134.651339 268.040515 
L 134.651339 265.410377 
L 118.708482 265.410377 
z
" clip-path="url(#p165aa1ad5c)" style="fill: #fc921f"/>
   </g>
   <g id="patch_62">
    <path d="M 150.594196 268.451821 
L 166.537054 268.451821 
L 166.537054 265.614051 
L 150.594196 265.614051 
z
" clip-path="url(#p165aa1ad5c)" style="fill: #fc921f"/>
   </g>
   <g id="patch_63">
    <path d="M 182.479911 268.345395 
L 198.422768 268.345395 
L 198.422768 265.351531 
L 182.479911 265.351531 
z
" clip-path="url(#p165aa1ad5c)" style="fill: #fc921f"/>
   </g>
   <g id="patch_64">
    <path d="M 214.365625 268.223526 
L 230.308482 268.223526 
L 230.308482 265.133692 
L 214.365625 265.133692 
z
" clip-path="url(#p165aa1ad5c)" style="fill: #fc921f"/>
   </g>
   <g id="patch_65">
    <path d="M 246.251339 267.951046 
L 262.194196 267.951046 
L 262.194196 264.788957 
L 246.251339 264.788957 
z
" clip-path="url(#p165aa1ad5c)" style="fill: #fc921f"/>
   </g>
   <g id="patch_66">
    <path d="M 278.137054 267.712407 
L 294.079911 267.712407 
L 294.079911 264.510572 
L 278.137054 264.510572 
z
" clip-path="url(#p165aa1ad5c)" style="fill: #fc921f"/>
   </g>
   <g id="patch_67">
    <path d="M 310.022768 267.38724 
L 325.965625 267.38724 
L 325.965625 264.193178 
L 310.022768 264.193178 
z
" clip-path="url(#p165aa1ad5c)" style="fill: #fc921f"/>
   </g>
   <g id="patch_68">
    <path d="M 341.908482 267.124984 
L 357.851339 267.124984 
L 357.851339 263.81213 
L 341.908482 263.81213 
z
" clip-path="url(#p165aa1ad5c)" style="fill: #fc921f"/>
   </g>
   <g id="patch_69">
    <path d="M 373.794196 267.481191 
L 389.737054 267.481191 
L 389.737054 263.993453 
L 373.794196 263.993453 
z
" clip-path="url(#p165aa1ad5c)" style="fill: #fc921f"/>
   </g>
   <g id="patch_70">
    <path d="M 405.679911 267.067717 
L 421.622768 267.067717 
L 421.622768 263.489893 
L 405.679911 263.489893 
z
" clip-path="url(#p165aa1ad5c)" style="fill: #fc921f"/>
   </g>
   <g id="patch_71">
    <path d="M 437.565625 266.941356 
L 453.508482 266.941356 
L 453.508482 263.354038 
L 437.565625 263.354038 
z
" clip-path="url(#p165aa1ad5c)" style="fill: #fc921f"/>
   </g>
   <g id="patch_72">
    <path d="M 469.451339 266.777342 
L 485.394196 266.777342 
L 485.394196 263.108518 
L 469.451339 263.108518 
z
" clip-path="url(#p165aa1ad5c)" style="fill: #fc921f"/>
   </g>
   <g id="patch_73">
    <path d="M 54.937054 265.956024 
L 70.879911 265.956024 
L 70.879911 23.837812 
L 54.937054 23.837812 
z
" clip-path="url(#p165aa1ad5c)" style="fill: #ffde3e"/>
   </g>
   <g id="patch_74">
    <path d="M 86.822768 265.682138 
L 102.765625 265.682138 
L 102.765625 23.837812 
L 86.822768 23.837812 
z
" clip-path="url(#p165aa1ad5c)" style="fill: #ffde3e"/>
   </g>
   <g id="patch_75">
    <path d="M 118.708482 265.410377 
L 134.651339 265.410377 
L 134.651339 23.837812 
L 118.708482 23.837812 
z
" clip-path="url(#p165aa1ad5c)" style="fill: #ffde3e"/>
   </g>
   <g id="patch_76">
    <path d="M 150.594196 265.614051 
L 166.537054 265.614051 
L 166.537054 23.837812 
L 150.594196 23.837812 
z
" clip-path="url(#p165aa1ad5c)" style="fill: #ffde3e"/>
   </g>
   <g id="patch_77">
    <path d="M 182.479911 265.351531 
L 198.422768 265.351531 
L 198.422768 23.837812 
L 182.479911 23.837812 
z
" clip-path="url(#p165aa1ad5c)" style="fill: #ffde3e"/>
   </g>
   <g id="patch_78">
    <path d="M 214.365625 265.133692 
L 230.308482 265.133692 
L 230.308482 23.837812 
L 214.365625 23.837812 
z
" clip-path="url(#p165aa1ad5c)" style="fill: #ffde3e"/>
   </g>
   <g id="patch_79">
    <path d="M 246.251339 264.788957 
L 262.194196 264.788957 
L 262.194196 23.837812 
L 246.251339 23.837812 
z
" clip-path="url(#p165aa1ad5c)" style="fill: #ffde3e"/>
   </g>
   <g id="patch_80">
    <path d="M 278.137054 264.510572 
L 294.079911 264.510572 
L 294.079911 23.837812 
L 278.137054 23.837812 
z
" clip-path="url(#p165aa1ad5c)" style="fill: #ffde3e"/>
   </g>
   <g id="patch_81">
    <path d="M 310.022768 264.193178 
L 325.965625 264.193178 
L 325.965625 23.837812 
L 310.022768 23.837812 
z
" clip-path="url(#p165aa1ad5c)" style="fill: #ffde3e"/>
   </g>
   <g id="patch_82">
    <path d="M 341.908482 263.81213 
L 357.851339 263.81213 
L 357.851339 23.837812 
L 341.908482 23.837812 
z
" clip-path="url(#p165aa1ad5c)" style="fill: #ffde3e"/>
   </g>
   <g id="patch_83">
    <path d="M 373.794196 263.993453 
L 389.737054 263.993453 
L 389.737054 23.837812 
L 373.794196 23.837812 
z
" clip-path="url(#p165aa1ad5c)" style="fill: #ffde3e"/>
   </g>
   <g id="patch_84">
    <path d="M 405.679911 263.489893 
L 421.622768 263.489893 
L 421.622768 23.837812 
L 405.679911 23.837812 
z
" clip-path="url(#p165aa1ad5c)" style="fill: #ffde3e"/>
   </g>
   <g id="patch_85">
    <path d="M 437.565625 263.354038 
L 453.508482 263.354038 
L 453.508482 23.837812 
L 437.565625 23.837812 
z
" clip-path="url(#p165aa1ad5c)" style="fill: #ffde3e"/>
   </g>
   <g id="patch_86">
    <path d="M 469.451339 263.108518 
L 485.394196 263.108518 
L 485.394196 23.837812 
L 469.451339 23.837812 
z
" clip-path="url(#p165aa1ad5c)" style="fill: #ffde3e"/>
   </g>
   <g id="patch_87">
    <path d="M 46.965625 273.317812 
L 46.965625 23.837812 
" style="fill: none; stroke: #000000; stroke-width: 0.8; stroke-linejoin: miter; stroke-linecap: square"/>
   </g>
   <g id="patch_88">
    <path d="M 493.365625 273.317812 
L 493.365625 23.837812 
" style="fill: none; stroke: #000000; stroke-width: 0.8; stroke-linejoin: miter; stroke-linecap: square"/>
   </g>
   <g id="patch_89">
    <path d="M 46.965625 273.317812 
L 493.365625 273.317812 
" style="fill: none; stroke: #000000; stroke-width: 0.8; stroke-linejoin: miter; stroke-linecap: square"/>
   </g>
   <g id="patch_90">
    <path d="M 46.965625 23.837812 
L 493.365625 23.837812 
" style="fill: none; stroke: #000000; stroke-width: 0.8; stroke-linejoin: miter; stroke-linecap: square"/>
   </g>
   <g id="text_22">
    <!-- Composition of Population by Race - Hocking -->
    <g transform="translate(113.041875 17.837812) scale(0.14 -0.14)">
     <defs>
      <path id="DejaVuSans-43" d="M 4122 4306 
L 4122 3641 
Q 3803 3938 3442 4084 
Q 3081 4231 2675 4231 
Q 1875 4231 1450 3742 
Q 1025 3253 1025 2328 
Q 1025 1406 1450 917 
Q 1875 428 2675 428 
Q 3081 428 3442 575 
Q 3803 722 4122 1019 
L 4122 359 
Q 3791 134 3420 21 
Q 3050 -91 2638 -91 
Q 1578 -91 968 557 
Q 359 1206 359 2328 
Q 359 3453 968 4101 
Q 1578 4750 2638 4750 
Q 3056 4750 3426 4639 
Q 3797 4528 4122 4306 
z
" transform="scale(0.015625)"/>
      <path id="DejaVuSans-6d" d="M 3328 2828 
Q 3544 3216 3844 3400 
Q 4144 3584 4550 3584 
Q 5097 3584 5394 3201 
Q 5691 2819 5691 2113 
L 5691 0 
L 5113 0 
L 5113 2094 
Q 5113 2597 4934 2840 
Q 4756 3084 4391 3084 
Q 3944 3084 3684 2787 
Q 3425 2491 3425 1978 
L 3425 0 
L 2847 0 
L 2847 2094 
Q 2847 2600 2669 2842 
Q 2491 3084 2119 3084 
Q 1678 3084 1418 2786 
Q 1159 2488 1159 1978 
L 1159 0 
L 581 0 
L 581 3500 
L 1159 3500 
L 1159 2956 
Q 1356 3278 1631 3431 
Q 1906 3584 2284 3584 
Q 2666 3584 2933 3390 
Q 3200 3197 3328 2828 
z
" transform="scale(0.015625)"/>
      <path id="DejaVuSans-73" d="M 2834 3397 
L 2834 2853 
Q 2591 2978 2328 3040 
Q 2066 3103 1784 3103 
Q 1356 3103 1142 2972 
Q 928 2841 928 2578 
Q 928 2378 1081 2264 
Q 1234 2150 1697 2047 
L 1894 2003 
Q 2506 1872 2764 1633 
Q 3022 1394 3022 966 
Q 3022 478 2636 193 
Q 2250 -91 1575 -91 
Q 1294 -91 989 -36 
Q 684 19 347 128 
L 347 722 
Q 666 556 975 473 
Q 1284 391 1588 391 
Q 1994 391 2212 530 
Q 2431 669 2431 922 
Q 2431 1156 2273 1281 
Q 2116 1406 1581 1522 
L 1381 1569 
Q 847 1681 609 1914 
Q 372 2147 372 2553 
Q 372 3047 722 3315 
Q 1072 3584 1716 3584 
Q 2034 3584 2315 3537 
Q 2597 3491 2834 3397 
z
" transform="scale(0.015625)"/>
      <path id="DejaVuSans-50" d="M 1259 4147 
L 1259 2394 
L 2053 2394 
Q 2494 2394 2734 2622 
Q 2975 2850 2975 3272 
Q 2975 3691 2734 3919 
Q 2494 4147 2053 4147 
L 1259 4147 
z
M 628 4666 
L 2053 4666 
Q 2838 4666 3239 4311 
Q 3641 3956 3641 3272 
Q 3641 2581 3239 2228 
Q 2838 1875 2053 1875 
L 1259 1875 
L 1259 0 
L 628 0 
L 628 4666 
z
" transform="scale(0.015625)"/>
      <path id="DejaVuSans-62" d="M 3116 1747 
Q 3116 2381 2855 2742 
Q 2594 3103 2138 3103 
Q 1681 3103 1420 2742 
Q 1159 2381 1159 1747 
Q 1159 1113 1420 752 
Q 1681 391 2138 391 
Q 2594 391 2855 752 
Q 3116 1113 3116 1747 
z
M 1159 2969 
Q 1341 3281 1617 3432 
Q 1894 3584 2278 3584 
Q 2916 3584 3314 3078 
Q 3713 2572 3713 1747 
Q 3713 922 3314 415 
Q 2916 -91 2278 -91 
Q 1894 -91 1617 61 
Q 1341 213 1159 525 
L 1159 0 
L 581 0 
L 581 4863 
L 1159 4863 
L 1159 2969 
z
" transform="scale(0.015625)"/>
      <path id="DejaVuSans-79" d="M 2059 -325 
Q 1816 -950 1584 -1140 
Q 1353 -1331 966 -1331 
L 506 -1331 
L 506 -850 
L 844 -850 
Q 1081 -850 1212 -737 
Q 1344 -625 1503 -206 
L 1606 56 
L 191 3500 
L 800 3500 
L 1894 763 
L 2988 3500 
L 3597 3500 
L 2059 -325 
z
" transform="scale(0.015625)"/>
      <path id="DejaVuSans-52" d="M 2841 2188 
Q 3044 2119 3236 1894 
Q 3428 1669 3622 1275 
L 4263 0 
L 3584 0 
L 2988 1197 
Q 2756 1666 2539 1819 
Q 2322 1972 1947 1972 
L 1259 1972 
L 1259 0 
L 628 0 
L 628 4666 
L 2053 4666 
Q 2853 4666 3247 4331 
Q 3641 3997 3641 3322 
Q 3641 2881 3436 2590 
Q 3231 2300 2841 2188 
z
M 1259 4147 
L 1259 2491 
L 2053 2491 
Q 2509 2491 2742 2702 
Q 2975 2913 2975 3322 
Q 2975 3731 2742 3939 
Q 2509 4147 2053 4147 
L 1259 4147 
z
" transform="scale(0.015625)"/>
      <path id="DejaVuSans-2d" d="M 313 2009 
L 1997 2009 
L 1997 1497 
L 313 1497 
L 313 2009 
z
" transform="scale(0.015625)"/>
      <path id="DejaVuSans-48" d="M 628 4666 
L 1259 4666 
L 1259 2753 
L 3553 2753 
L 3553 4666 
L 4184 4666 
L 4184 0 
L 3553 0 
L 3553 2222 
L 1259 2222 
L 1259 0 
L 628 0 
L 628 4666 
z
" transform="scale(0.015625)"/>
      <path id="DejaVuSans-6b" d="M 581 4863 
L 1159 4863 
L 1159 1991 
L 2875 3500 
L 3609 3500 
L 1753 1863 
L 3688 0 
L 2938 0 
L 1159 1709 
L 1159 0 
L 581 0 
L 581 4863 
z
" transform="scale(0.015625)"/>
      <path id="DejaVuSans-67" d="M 2906 1791 
Q 2906 2416 2648 2759 
Q 2391 3103 1925 3103 
Q 1463 3103 1205 2759 
Q 947 2416 947 1791 
Q 947 1169 1205 825 
Q 1463 481 1925 481 
Q 2391 481 2648 825 
Q 2906 1169 2906 1791 
z
M 3481 434 
Q 3481 -459 3084 -895 
Q 2688 -1331 1869 -1331 
Q 1566 -1331 1297 -1286 
Q 1028 -1241 775 -1147 
L 775 -588 
Q 1028 -725 1275 -790 
Q 1522 -856 1778 -856 
Q 2344 -856 2625 -561 
Q 2906 -266 2906 331 
L 2906 616 
Q 2728 306 2450 153 
Q 2172 0 1784 0 
Q 1141 0 747 490 
Q 353 981 353 1791 
Q 353 2603 747 3093 
Q 1141 3584 1784 3584 
Q 2172 3584 2450 3431 
Q 2728 3278 2906 2969 
L 2906 3500 
L 3481 3500 
L 3481 434 
z
" transform="scale(0.015625)"/>
     </defs>
     <use xlink:href="#DejaVuSans-43"/>
     <use xlink:href="#DejaVuSans-6f" x="69.824219"/>
     <use xlink:href="#DejaVuSans-6d" x="131.005859"/>
     <use xlink:href="#DejaVuSans-70" x="228.417969"/>
     <use xlink:href="#DejaVuSans-6f" x="291.894531"/>
     <use xlink:href="#DejaVuSans-73" x="353.076172"/>
     <use xlink:href="#DejaVuSans-69" x="405.175781"/>
     <use xlink:href="#DejaVuSans-74" x="432.958984"/>
     <use xlink:href="#DejaVuSans-69" x="472.167969"/>
     <use xlink:href="#DejaVuSans-6f" x="499.951172"/>
     <use xlink:href="#DejaVuSans-6e" x="561.132812"/>
     <use xlink:href="#DejaVuSans-20" x="624.511719"/>
     <use xlink:href="#DejaVuSans-6f" x="656.298828"/>
     <use xlink:href="#DejaVuSans-66" x="717.480469"/>
     <use xlink:href="#DejaVuSans-20" x="752.685547"/>
     <use xlink:href="#DejaVuSans-50" x="784.472656"/>
     <use xlink:href="#DejaVuSans-6f" x="841.150391"/>
     <use xlink:href="#DejaVuSans-70" x="902.332031"/>
     <use xlink:href="#DejaVuSans-75" x="965.808594"/>
     <use xlink:href="#DejaVuSans-6c" x="1029.1875"/>
     <use xlink:href="#DejaVuSans-61" x="1056.970703"/>
     <use xlink:href="#DejaVuSans-74" x="1118.25"/>
     <use xlink:href="#DejaVuSans-69" x="1157.458984"/>
     <use xlink:href="#DejaVuSans-6f" x="1185.242188"/>
     <use xlink:href="#DejaVuSans-6e" x="1246.423828"/>
     <use xlink:href="#DejaVuSans-20" x="1309.802734"/>
     <use xlink:href="#DejaVuSans-62" x="1341.589844"/>
     <use xlink:href="#DejaVuSans-79" x="1405.066406"/>
     <use xlink:href="#DejaVuSans-20" x="1464.246094"/>
     <use xlink:href="#DejaVuSans-52" x="1496.033203"/>
     <use xlink:href="#DejaVuSans-61" x="1563.265625"/>
     <use xlink:href="#DejaVuSans-63" x="1624.544922"/>
     <use xlink:href="#DejaVuSans-65" x="1679.525391"/>
     <use xlink:href="#DejaVuSans-20" x="1741.048828"/>
     <use xlink:href="#DejaVuSans-2d" x="1772.835938"/>
     <use xlink:href="#DejaVuSans-20" x="1808.919922"/>
     <use xlink:href="#DejaVuSans-48" x="1840.707031"/>
     <use xlink:href="#DejaVuSans-6f" x="1915.902344"/>
     <use xlink:href="#DejaVuSans-63" x="1977.083984"/>
     <use xlink:href="#DejaVuSans-6b" x="2032.064453"/>
     <use xlink:href="#DejaVuSans-69" x="2089.974609"/>
     <use xlink:href="#DejaVuSans-6e" x="2117.757812"/>
     <use xlink:href="#DejaVuSans-67" x="2181.136719"/>
    </g>
   </g>
   <g id="legend_1">
    <g id="patch_91">
     <path d="M 500.365625 234.606719 
L 615.614063 234.606719 
Q 617.614063 234.606719 617.614063 232.606719 
L 617.614063 64.548906 
Q 617.614063 62.548906 615.614063 62.548906 
L 500.365625 62.548906 
Q 498.365625 62.548906 498.365625 64.548906 
L 498.365625 232.606719 
Q 498.365625 234.606719 500.365625 234.606719 
z
" style="fill: #ffffff; opacity: 0.8; stroke: #cccccc; stroke-linejoin: miter"/>
    </g>
    <g id="patch_92">
     <path d="M 502.365625 74.147344 
L 522.365625 74.147344 
L 522.365625 67.147344 
L 502.365625 67.147344 
z
" style="fill: #ffde3e"/>
    </g>
    <g id="text_23">
     <!-- White -->
     <g transform="translate(530.365625 74.147344) scale(0.1 -0.1)">
      <defs>
       <path id="DejaVuSans-57" d="M 213 4666 
L 850 4666 
L 1831 722 
L 2809 4666 
L 3519 4666 
L 4500 722 
L 5478 4666 
L 6119 4666 
L 4947 0 
L 4153 0 
L 3169 4050 
L 2175 0 
L 1381 0 
L 213 4666 
z
" transform="scale(0.015625)"/>
      </defs>
      <use xlink:href="#DejaVuSans-57"/>
      <use xlink:href="#DejaVuSans-68" x="98.876953"/>
      <use xlink:href="#DejaVuSans-69" x="162.255859"/>
      <use xlink:href="#DejaVuSans-74" x="190.039062"/>
      <use xlink:href="#DejaVuSans-65" x="229.248047"/>
     </g>
    </g>
    <g id="patch_93">
     <path d="M 502.365625 100.464219 
L 522.365625 100.464219 
L 522.365625 93.464219 
L 502.365625 93.464219 
z
" style="fill: #fc921f"/>
    </g>
    <g id="text_24">
     <!-- Two or more -->
     <g transform="translate(530.365625 93.825469) scale(0.1 -0.1)">
      <defs>
       <path id="DejaVuSans-54" d="M -19 4666 
L 3928 4666 
L 3928 4134 
L 2272 4134 
L 2272 0 
L 1638 0 
L 1638 4134 
L -19 4134 
L -19 4666 
z
" transform="scale(0.015625)"/>
       <path id="DejaVuSans-77" d="M 269 3500 
L 844 3500 
L 1563 769 
L 2278 3500 
L 2956 3500 
L 3675 769 
L 4391 3500 
L 4966 3500 
L 4050 0 
L 3372 0 
L 2619 2869 
L 1863 0 
L 1184 0 
L 269 3500 
z
" transform="scale(0.015625)"/>
      </defs>
      <use xlink:href="#DejaVuSans-54"/>
      <use xlink:href="#DejaVuSans-77" x="44.583984"/>
      <use xlink:href="#DejaVuSans-6f" x="126.371094"/>
      <use xlink:href="#DejaVuSans-20" x="187.552734"/>
      <use xlink:href="#DejaVuSans-6f" x="219.339844"/>
      <use xlink:href="#DejaVuSans-72" x="280.521484"/>
      <use xlink:href="#DejaVuSans-20" x="321.634766"/>
      <use xlink:href="#DejaVuSans-6d" x="353.421875"/>
      <use xlink:href="#DejaVuSans-6f" x="450.833984"/>
      <use xlink:href="#DejaVuSans-72" x="512.015625"/>
      <use xlink:href="#DejaVuSans-65" x="550.878906"/>
     </g>
     <!-- races -->
     <g transform="translate(530.365625 105.023281) scale(0.1 -0.1)">
      <use xlink:href="#DejaVuSans-72"/>
      <use xlink:href="#DejaVuSans-61" x="41.113281"/>
      <use xlink:href="#DejaVuSans-63" x="102.392578"/>
      <use xlink:href="#DejaVuSans-65" x="157.373047"/>
      <use xlink:href="#DejaVuSans-73" x="218.896484"/>
     </g>
    </g>
    <g id="patch_94">
     <path d="M 502.365625 124.701406 
L 522.365625 124.701406 
L 522.365625 117.701406 
L 502.365625 117.701406 
z
" style="fill: #9e559c"/>
    </g>
    <g id="text_25">
     <!-- Some other race -->
     <g transform="translate(530.365625 124.701406) scale(0.1 -0.1)">
      <use xlink:href="#DejaVuSans-53"/>
      <use xlink:href="#DejaVuSans-6f" x="63.476562"/>
      <use xlink:href="#DejaVuSans-6d" x="124.658203"/>
      <use xlink:href="#DejaVuSans-65" x="222.070312"/>
      <use xlink:href="#DejaVuSans-20" x="283.59375"/>
      <use xlink:href="#DejaVuSans-6f" x="315.380859"/>
      <use xlink:href="#DejaVuSans-74" x="376.5625"/>
      <use xlink:href="#DejaVuSans-68" x="415.771484"/>
      <use xlink:href="#DejaVuSans-65" x="479.150391"/>
      <use xlink:href="#DejaVuSans-72" x="540.673828"/>
      <use xlink:href="#DejaVuSans-20" x="581.787109"/>
      <use xlink:href="#DejaVuSans-72" x="613.574219"/>
      <use xlink:href="#DejaVuSans-61" x="654.6875"/>
      <use xlink:href="#DejaVuSans-63" x="715.966797"/>
      <use xlink:href="#DejaVuSans-65" x="770.947266"/>
     </g>
    </g>
    <g id="patch_95">
     <path d="M 502.365625 156.617187 
L 522.365625 156.617187 
L 522.365625 149.617187 
L 502.365625 149.617187 
z
" style="fill: #a7c636"/>
    </g>
    <g id="text_26">
     <!-- Hispanic or -->
     <g transform="translate(530.365625 144.379531) scale(0.1 -0.1)">
      <use xlink:href="#DejaVuSans-48"/>
      <use xlink:href="#DejaVuSans-69" x="75.195312"/>
      <use xlink:href="#DejaVuSans-73" x="102.978516"/>
      <use xlink:href="#DejaVuSans-70" x="155.078125"/>
      <use xlink:href="#DejaVuSans-61" x="218.554688"/>
      <use xlink:href="#DejaVuSans-6e" x="279.833984"/>
      <use xlink:href="#DejaVuSans-69" x="343.212891"/>
      <use xlink:href="#DejaVuSans-63" x="370.996094"/>
      <use xlink:href="#DejaVuSans-20" x="425.976562"/>
      <use xlink:href="#DejaVuSans-6f" x="457.763672"/>
      <use xlink:href="#DejaVuSans-72" x="518.945312"/>
     </g>
     <!-- Latino (any -->
     <g transform="translate(530.365625 155.577344) scale(0.1 -0.1)">
      <defs>
       <path id="DejaVuSans-4c" d="M 628 4666 
L 1259 4666 
L 1259 531 
L 3531 531 
L 3531 0 
L 628 0 
L 628 4666 
z
" transform="scale(0.015625)"/>
      </defs>
      <use xlink:href="#DejaVuSans-4c"/>
      <use xlink:href="#DejaVuSans-61" x="55.712891"/>
      <use xlink:href="#DejaVuSans-74" x="116.992188"/>
      <use xlink:href="#DejaVuSans-69" x="156.201172"/>
      <use xlink:href="#DejaVuSans-6e" x="183.984375"/>
      <use xlink:href="#DejaVuSans-6f" x="247.363281"/>
      <use xlink:href="#DejaVuSans-20" x="308.544922"/>
      <use xlink:href="#DejaVuSans-28" x="340.332031"/>
      <use xlink:href="#DejaVuSans-61" x="379.345703"/>
      <use xlink:href="#DejaVuSans-6e" x="440.625"/>
      <use xlink:href="#DejaVuSans-79" x="504.003906"/>
     </g>
     <!-- races) -->
     <g transform="translate(530.365625 166.775156) scale(0.1 -0.1)">
      <use xlink:href="#DejaVuSans-72"/>
      <use xlink:href="#DejaVuSans-61" x="41.113281"/>
      <use xlink:href="#DejaVuSans-63" x="102.392578"/>
      <use xlink:href="#DejaVuSans-65" x="157.373047"/>
      <use xlink:href="#DejaVuSans-73" x="218.896484"/>
      <use xlink:href="#DejaVuSans-29" x="270.996094"/>
     </g>
    </g>
    <g id="patch_96">
     <path d="M 502.365625 198.690937 
L 522.365625 198.690937 
L 522.365625 191.690937 
L 502.365625 191.690937 
z
" style="fill: #007ac2"/>
    </g>
    <g id="text_27">
     <!-- Black or -->
     <g transform="translate(530.365625 186.453281) scale(0.1 -0.1)">
      <defs>
       <path id="DejaVuSans-42" d="M 1259 2228 
L 1259 519 
L 2272 519 
Q 2781 519 3026 730 
Q 3272 941 3272 1375 
Q 3272 1813 3026 2020 
Q 2781 2228 2272 2228 
L 1259 2228 
z
M 1259 4147 
L 1259 2741 
L 2194 2741 
Q 2656 2741 2882 2914 
Q 3109 3088 3109 3444 
Q 3109 3797 2882 3972 
Q 2656 4147 2194 4147 
L 1259 4147 
z
M 628 4666 
L 2241 4666 
Q 2963 4666 3353 4366 
Q 3744 4066 3744 3513 
Q 3744 3084 3544 2831 
Q 3344 2578 2956 2516 
Q 3422 2416 3680 2098 
Q 3938 1781 3938 1306 
Q 3938 681 3513 340 
Q 3088 0 2303 0 
L 628 0 
L 628 4666 
z
" transform="scale(0.015625)"/>
      </defs>
      <use xlink:href="#DejaVuSans-42"/>
      <use xlink:href="#DejaVuSans-6c" x="68.603516"/>
      <use xlink:href="#DejaVuSans-61" x="96.386719"/>
      <use xlink:href="#DejaVuSans-63" x="157.666016"/>
      <use xlink:href="#DejaVuSans-6b" x="212.646484"/>
      <use xlink:href="#DejaVuSans-20" x="270.556641"/>
      <use xlink:href="#DejaVuSans-6f" x="302.34375"/>
      <use xlink:href="#DejaVuSans-72" x="363.525391"/>
     </g>
     <!-- African -->
     <g transform="translate(530.365625 197.651094) scale(0.1 -0.1)">
      <defs>
       <path id="DejaVuSans-41" d="M 2188 4044 
L 1331 1722 
L 3047 1722 
L 2188 4044 
z
M 1831 4666 
L 2547 4666 
L 4325 0 
L 3669 0 
L 3244 1197 
L 1141 1197 
L 716 0 
L 50 0 
L 1831 4666 
z
" transform="scale(0.015625)"/>
      </defs>
      <use xlink:href="#DejaVuSans-41"/>
      <use xlink:href="#DejaVuSans-66" x="64.783203"/>
      <use xlink:href="#DejaVuSans-72" x="99.988281"/>
      <use xlink:href="#DejaVuSans-69" x="141.101562"/>
      <use xlink:href="#DejaVuSans-63" x="168.884766"/>
      <use xlink:href="#DejaVuSans-61" x="223.865234"/>
      <use xlink:href="#DejaVuSans-6e" x="285.144531"/>
     </g>
     <!-- American -->
     <g transform="translate(530.365625 208.848906) scale(0.1 -0.1)">
      <use xlink:href="#DejaVuSans-41"/>
      <use xlink:href="#DejaVuSans-6d" x="68.408203"/>
      <use xlink:href="#DejaVuSans-65" x="165.820312"/>
      <use xlink:href="#DejaVuSans-72" x="227.34375"/>
      <use xlink:href="#DejaVuSans-69" x="268.457031"/>
      <use xlink:href="#DejaVuSans-63" x="296.240234"/>
      <use xlink:href="#DejaVuSans-61" x="351.220703"/>
      <use xlink:href="#DejaVuSans-6e" x="412.5"/>
     </g>
    </g>
    <g id="patch_97">
     <path d="M 502.365625 228.527031 
L 522.365625 228.527031 
L 522.365625 221.527031 
L 502.365625 221.527031 
z
" style="fill: #149ece"/>
    </g>
    <g id="text_28">
     <!-- Asian -->
     <g transform="translate(530.365625 228.527031) scale(0.1 -0.1)">
      <use xlink:href="#DejaVuSans-41"/>
      <use xlink:href="#DejaVuSans-73" x="68.408203"/>
      <use xlink:href="#DejaVuSans-69" x="120.507812"/>
      <use xlink:href="#DejaVuSans-61" x="148.291016"/>
      <use xlink:href="#DejaVuSans-6e" x="209.570312"/>
     </g>
    </g>
   </g>
  </g>
 </g>
 <defs>
  <clipPath id="p165aa1ad5c">
   <rect x="46.965625" y="23.837812" width="446.4" height="249.48"/>
  </clipPath>
 </defs>
</svg>
